<svg xmlns="http://www.w3.org/2000/svg" viewBox="0 0 1024 768"><g fill="none" fill-rule="evenodd"><path fill="#ff5678" d="M548.7 183.1c-1.7-6.8-3.3-13.1-11.7-10-6.4 2.6-9.5 6.6-10.1 13.4-.5 5 .4 15.5 8 12.9 5.1-1.7 14-10.4 13.8-16.3M515.1 210c1-6.8-4.4-22.7-13-15.4a93 93 0 0 1-8.5 7c-3.7 2.7-3 4.4-3.2 9.1-.4 7.4.1 18.6 10.2 18.5 9.3-.1 15.5-11 14.5-19.2m-23-30c-2.1-9.4-6-22.6-14.6-28.2-11.2-7.5-15.2 14.7-15.2 21.2 0 9.4.3 23 11.2 27.5 10.4 4.3 17-13.7 18.6-20.4m76.2 2.7A35 35 0 0 0 548 208c-1.1 5 0 12.8-3.4 17-4 4.9-10.2.6-14.8 3.7-10.5 7 .7 19.8 8.6 21.8 6.2 1.7 12.6 2.7 18.9 4 5.9 1.1 8.7 6.3 12.3 11l-14.6-2.8c-2.2-.3-5.2-1.4-7.4-1.2-2.7.1-4.4 2-7 2.4-4.3.8-7.2-2-9 3.4-1.2 4 .8 8.9 4.4 10.9-3.2 3-10.5 4-14.7 5.2-6 1.9-12.2 3.1-17.8 6.3 0-9.9.1-17.7-4.7-26.7-2.3-4.3-6.7-16.6-11.5-18.4-1.4-.6-3.5-.3-5-.7-1.5-.5-2.4-1.8-4.1-1.9-3.2 0-6.6 3.6-8.5 6-4.7 6.2-4.5 16-4.2 23.3.3 7.6 1 17.2 4.1 24.2.8 1.6 1.5 3.5 3 4.5 1.2.7 3.4.1 4.2 1 3.2 2.9-1.2 4.6-3.7 6.4-6.3 4.6-11.7 9-16.3 15.2-4 5.2-10 11.6-11 18.3-4.3-5.8-7.3-12.4-10.6-18.8-1.9-3.6-2-2.8 0-5.6 1.6-2.1 4.3-4.4 6.6-5.9 4.5-3 9.2-6.3 10.5-12.1 1-4.4-1.4-12.6-2.8-17-1.7-5.7-6.3-10-12.2-6.8-4.4 2.5-6.5 11.3-10.7 12.5-4.8 1.4-4.1-10.1-4.6-13.3-.8-6-4-16.1-2-22 1.6-4.6 9-7 12.9-9.8a65 65 0 0 0 15.4-15.3c4.1-6 3.7-12 3-19-.4-4.1-1.1-15.2-8-12.9-3.8 1.4-21.3 25.2-24.4 16.8-1-2.4 1-8.4 1.3-11.2.3-2 .2-11.6 1.6-12.9.5-.5 6.6-1.3 8-2.1q4.7-3 7.5-7.9c6.4-10.7-.8-27.4-12.9-30-7.8-1.8-12 1-16.5 7.2-4.2 6.2-12.6 3.5-19.7 5-1.3-3.6 3.4-10.8 4.6-14.3 1.8-5.2 3.9-10.5 4.6-16 1.4-10.6-1-22-4.4-32 4 .6 9.8.3 12.6 3.3s4 9.3 6.4 13c4.5 7 9.7 14.6 16 20.2 8.1 7.3 11.4 3.9 17.6-2.9 6.4-6.8 3-16.5.8-25 5.1-.8 11 .7 16.1 1.5 4.6.7 13.2.9 17 3.6 3 2.1 2 4.4 2.2 8.4a70 70 0 0 0 3 16.3c3.3 10.7 11 14.4 20.3 7.5 3.2 4.3 6.7 10 11.6 12.5a64 64 0 0 0 19.4 4.7c6.8.5 12.3-2.5 18-6 2.7-1.7 3.5-3 6-1.7 1.7 1 4 5.6 5.9 7.2q3.1 2.7 6.5 5l3.1 2.4q3.6.9 2.5 4.3c1.5 4.4 1.8 9 3 13.5 1.6 5.3 5.2 8.1 10 10l5 1.8q4.3 0 2 3.5c0 3-3.1 7.7-4.8 10.1-1.6-4.5-8-9.6-12.9-7.6-5.7 2.2-6 8.8-5.5 13.9a49 49 0 0 1-9.7-6.6c-1.5-1.2-4-2.5-5-4.1-1.9-2.8-1.7-1.4-.4-5.1 1.5-4.1 12.3-14.3 8.6-18.4"/><path fill="#000" d="m827 658-12.8 10c-10 7.3-19.3 15.4-28.8 23.5-8.5 7.3-17.7 13.8-26.6 20.6-8.4 6.5-16 14.2-23.9 21.3 5.2 3 10.8 7.5 17 6 5-1.1 11-5.5 15.4-8.4 10.2-6.6 18.7-15.8 27.1-24.4q12.5-12.4 24.1-25.3c8.9-9.8 15.1-19.1 21-30.9-4.5-3-9.4 5-12.4 7.5m-75.4 23.6c-5.9 1.9-12 2.7-18 4.6-5.1 1.5-9.5 6.5-12.7 10.7-2.2 2.7-3.6 5.9-5.5 8.8-1 1.7-5.2 5.6-5.1 7.2 0 2.1 6.1 7.4 7.5 9l8.1 8.7c4-8.5 13.8-15.7 21-21.5l23.2-18.1c17.2-13.3 33.3-26.4 51.9-37.9-1.1-2.6-63.5 26.2-70.4 28.5m-28.7-5c-5.6 7-14.2 15-16 24.2l10.1-12.9q2.2-2.7 4.7-5.1c3.1-3 4.1-2.8 1.2-6.2M577.1 287.3q-17 1.5-34 5.3h-.4 2.4-2l-8 1.8a147 147 0 0 0-71 38.2l-.6.6c-.9 1.4-3 3.4-2.5 5.3q-1.9-1.2-1.6-2.2l-.4.9c5.3 3.4 8.7 11 12.3 16.3 4 5.9 8.4 11.4 12.2 17.4a739 739 0 0 1 23.7 40c12.9 23.5 28.8 45.8 43 68.4s27.6 45 41.8 67.6c15 24.1 32.3 46.8 47.9 70.3 9.3 14 19.9 27.1 29.4 41l27 39.2a58 58 0 0 1 27.3-32 1115 1115 0 0 1-50.3-77.3c-13.5-23-25.3-45.9-37.8-69l-36.9-68.5c-6.2-11.4-11.4-23.4-16.8-35.3-5.6-12.6-8-26.7-14.1-39.2-3-5.8-6.8-12.5-6.4-19.2.3-6.3 4.8-12.8 8.1-18 2-3 6-11.4 10-11.4 7.5-.1-1.3 15.1-2.5 18.1-5.4 13.9 2.1 25.9 7.8 38.2 5.5 12.2 9.8 24.9 15.7 36.8q3.8 7.5 7.2 15c.8 1.8 2.9 7.6 4.9 8.1 1 .4 6.7-3.2 7.5-3.8a43 43 0 0 0 13-12.1c2.6-4.5 1.5-12.1.3-16.9-3.4-13.8-10.7-27-16.4-40-6-13.7-12.3-27.5-17.5-41.5-2.8-7.6-5.3-15.2-8.4-22.7l-5.4-12.6c-2.5-5.3-2.7-7.2-8.5-6.8m-200.6 165c-5.4 2.7-6.8 4-8 10-1.1 6.1-.6 12.2-1.2 18.4l-.3 2.4q-1.6 13.2-2.5 26.2a69 69 0 0 0 9.1 34.8c2.4 4.8 4.8 9.4 8.4 13.4q3.4 3.6 7.3 6.6c3.2 2.7 3.7 4.3 5.8.7 2.6-4.4.5-11.5-.2-16.3a133 133 0 0 1-1-32.5c.5-8.4 1-16.8 2.3-25.2l1.8-8.9c.7-2.7 3.5-7.6 3.2-10.2-.2-2.7-4.3-7.6-5-12q-.6-4-.7-7.8c-.2-3.7.7-4.6-2.5-5.7-3.9-1.2-13.2 4.6-16.5 6.1m-56.2-29c-1.5 4.4-7.4 8.8-10.5 12.1a191 191 0 0 0-21.4 28.5 181 181 0 0 0-24.5 55.2c-11.3 3.1-7.4-20-5.8-24.4a188 188 0 0 1 14-31.8c5.2-9.3 12.4-19.3 19.7-27 3-3.2 6.6-7.1 10-10 2.9-2.7 9.4-9 13-9.6 4.3-.7 7 2.5 5.5 7m47 57.4v.2zm354-125a137 137 0 0 1 12 40.6c2.2 12.2 3.9 25.6 3.6 38q.4 3.3.4 6.5v2-4.8q1.1 2.2 0 4.6l-.3 9.4c0 4.6.9 13.8-2.2 17.7-4.7 6-6.1-4.7-6.4-7.6-.7-7.3-.8-14.7-1.4-22-2-25.6-5.3-54-15.2-77.8-1-2.2-2.4-7-4.2-8.7-1.3-1.1-2.3.1-3.7-1.9s-3.7-14-1-16.4c5.5-5 16 16.1 18.3 20.3m-448.5 59.7c7.8 5.5-21 18.8-24.8 21.2q-10.4 6.5-20.5 13.3c-7 4.9-13.8 10.7-21 15.1-9.2-10.7 16.5-26.4 24-30.4s14.7-8.7 22.6-12.1c3.8-1.7 15.7-9.9 19.7-7.1m223.1 4c-1.5.2-4.5 2-6 2.6-14.7 5.2-31.7 7.6-45.2 15-9.2 0-18.8 5.5-27.6 8-3.5 1-10.5 2-13.4 4-3.3 2.3-1.7 11.5-1.7 15.6 5.7-5.4 12.4-4.3 20-4.6 10.6-.5 21.1-1.5 31.7-2.1 11.2-.7 22.2-2.4 33.4-2.4s22-2.2 32.9-.1c-1.9-7.5-8.8-15.5-13-21.9-2.5-4-4.4-9-7.3-12.6-2.2-2.8-.6-2-3.8-1.6M421.2 460h-3.8c1.3-1 2.5-.7 3.8 0M756 369a150 150 0 0 1 10.7 47 53 53 0 0 1-2.1 20c-4 8.7-7.7 1-7.5-5a355 355 0 0 0-6.4-45.3c-1.5-6.9-4.9-15.6-3.7-22.8 1.8-10.5 7.8 2.7 9 6.1m1 64.3v.5zm33.8-35.4c1.8 4.6 4.8 15.6 2 20.1-4 6-6.9-.7-8-5-1.8-7-1.6-14-4.2-20.6 4-8.4 8-.4 10.2 5.5M239 391.5c0 4.9-7.4 6.4-11.3 8.4-3 1.4-6.4 5.7-8.3 2.3-3.2-5.8 15.7-10.7 19.6-10.7m154-294c3.4 10 5.8 21.4 4.4 32-.7 5.5-2.8 10.8-4.6 16-1.1 3.2-5.9 10.8-4.6 14.3 5.2-1.1 13.9.7 18.1-2.2 4.9-3.3 4.4-10.3 12-10.7 11.7-.7 21.1 9.6 22 21.3.4 6-4 12.3-8.6 15.9-2.4 2-4.7 2.5-7.4 3.7-1.7.8-2.2.8-2.4.7.1.1.2.6-.5 2.4-1 2.2-.7 5.7-1 8-.4 3.5-1.8 7.8-1.3 11.2.4 3.6.3 4 4.2 2.7 4.6-1.5 10.4-7.8 13.9-11.2 3.3-3.3 6.6-10.4 11.5-4.7 3.6 4.3 3.6 15.3 3 20.7-1.2 12.7-15.6 23-25.6 29-7.1 4.1-6.1 7-5.7 14.9q.8 9.7 2.3 19.4c1 7.7 3.5 7.8 7.3 2.1 2.9-4.4 7.7-11.6 14-9 6.1 2.4 5.6 10.5 7 15.7 2 7.4 1.3 13-5 18.3-2.8 2.5-12 6.5-12.8 10.4-.3 2 4.1 8 5.2 10a90 90 0 0 0 7.4 12.5c1-6.6 6.7-12.1 10.3-17.4a64 64 0 0 1 15.8-15.3c2.3-1.7 8-4 5.4-6.8-2.4-2.5-4.8-.7-7.1-4.7a61 61 0 0 1-4.7-25.4c-.3-6.8-.6-16.4 3.5-22.3 5-7.2 9.9-7.5 17.3-4.5 5.8 2.4 8.8 11.8 11.9 17.3a51 51 0 0 1 5.3 27.9c5.6-3.2 11.8-4.4 17.8-6.3 4.2-1.3 11.5-2.1 14.7-5.2a9 9 0 0 1-4.5-9.9c1.1-6.3 4.4-3.5 9.2-4.4 2.1-.4 3.7-2 5.9-2.3s4.6.6 6.8 1q8.2 1.4 16.2 3c-3-4-6-9.6-11-11-5.8-1.9-12.8-2.2-19-3.7-7.8-2-21.4-14.5-9.8-22.2 4.3-3 10 .8 14.2-3.1 3.9-3.7 2.7-11.4 3.8-16.4a35 35 0 0 1 20.5-26.4c3.8 4.1-7.1 14.2-8.6 18.4-.9 2.5-1.6 2.2-.6 4.3.6 1.4 3.7 3 5 4.1l1.1 1q4.4 3.7 9.6 6.4c-.4-5.1-.2-11.7 5.5-14 5-1.9 11.3 3.2 12.9 7.7 1.7-2.4 4.8-7 4.8-10.1q2.3-3.4-2-3.5l-3.7-1.3c-5.4-2.1-9.5-4.5-11.2-10.5-1.3-4.4-1.6-9-3.1-13.5q1.1-3.4-2.5-4.3l-2.2-1.6a106 106 0 0 1-7.4-5.8c-1.8-1.6-3.5-5-5.4-6.2a7 7 0 0 0-1.6-2.2l-5 3c-5.6 3.4-11 6.5-18 6a74 74 0 0 1-18.3-4.3c-5.5-2.2-9.3-8.4-12.6-13-9.3 7-17 3.2-20.4-7.5a68 68 0 0 1-2.8-14.8c-.3-4 .9-7.6-2.2-9.9-4-2.7-12.5-2.9-17-3.6-5.1-.8-11-2.3-16.2-1.5 2.3 8.4 5.6 18.2-.8 25s-9.4 10.2-17.6 2.9a101 101 0 0 1-16-20.3c-2.5-3.7-3.5-8.5-6-12-2.7-4-8.3-3.5-13-4.3M102.4 301.7v.5zM385.1 99.1c-2.1 0-7 1-9.1 1.3q-8.4 1.7-17 3c-13.3 2.1-26.4 4.8-39.5 7.2-12 2.2-25.4 5.1-36.8 9.7-12.5 5-24.6 9.9-36.5 16.2-12 6.4-22.2 14.7-33.6 21.7q-32.3 19.7-64 40.7c-13.4 8.9-27.6 16.5-40.6 26a395 395 0 0 0-19.5 15c-4.7 4-13.1 9.2-14.4 15.7 6.3 0 14.7-11 19.9-14.4q5.7-3.5 11.7-6.8c2.2-1.3 9.3-8 11.7-8.1 3.5 0 4 5 3.1 7.2-1 2.9-4.4 5.3-6.6 7.4A101 101 0 0 0 96 265.3c8.8-3.3 16-13.9 22.3-20.7 3.3-3.5 20.1-19 19-4.4-.5 5.5-4.4 9.6-7.1 14q-4.6 7.4-8.6 15a171 171 0 0 0-12.4 31.8c5.4-2.1 6.9-8.2 9.4-12.9q4-7.1 8.6-14c6.1-9.7 11.5-20 18-29.5 2.7-3.8 14.2-23.7 18.9-20.9 3.1 1.9 4 10.8 5 13.9 1.5 5 3.8 10.1 8.7 12.3.2-10-.1-20.1 0-30.2.2-7.9 4.5-10.1 9.9-15.6 12.5-12.9 28.5-21.1 43.4-30.8 6.6-4.3 12.7-9.9 20-13.4 8.2-4 16.2-8.7 24.2-13.2a94 94 0 0 1 55-11.3h.8-.1.1c18.4-2.5 39.1 1 56.1 8.2a79 79 0 0 0 2.2-39.5c-.9-3.8-.7-4.9-4.3-5m167.1 192.1-2.3.1zM922 78.3c-5.4 4.9-12.4 9-18.3 13-5.5 3.7-10.5 8-15.9 11.6-14 9.7-26.7 21-40.2 31.5a439 439 0 0 1-81 50.5q-20.5 9.4-41.8 17.5C711 207.7 698 215 682.9 215c-7.8 0-16 .2-23.7-1-8.4-1.2-17-6.2-24.6-9.7q-5.4-2.4-10.7-5.2c-3.1-1.7-7.4-6.2-10.7-6.8-7.6-1.3-8.3 14.1-10.3 19.5-.6 1.9-2.9 5-3 6.9 0 3.4-.5 1.6 2.6 3.8 3.2 2.4 7.8 4.4 11.4 6.2q10.6 5.3 21.4 9.7a82 82 0 0 0 32.5 6.6h1c1.5-.6 3-1 4.4 0H672h7.6-3.9q2-1.1 4 0c19.2-2 36.1-13.1 54.2-19 18.4-6 37.6-14.7 55-23.8 16.7-8.6 33.3-17.3 50.4-25.2 9.8-4.6 20.2-14 31.5-10.4 5.1 1.6 9.7 4.8 15 6 6.3 1.2 12.2 1.4 18.3 3.3-.3-2.9-8.4-7.1-10.2-10-1.3-2-1.5-4.3-2.5-6.2-1-1.8-2.4-2-2.8-4-1.4-8 11.9-16.5 16.9-21 16-14.3 34.7-25.7 50.6-40.4-9.6 0-21.2 12.2-28.4 17.8q-7 5.8-14.6 11c-1.4.9-7.9 5.8-9.6 5.3-5-1.6-.3-10.2 1.5-12.2 3.5-3.8 8.3-6.8 12.3-10q12.8-10 23.6-22.3c-7.2.4-17 12.2-22 16.8a69 69 0 0 1-20 14.8c-3.7 1.4-5.5 1-5.8-3.5-.3-5.1 3.7-7.8 7.1-10.8 6.9-6 17.9-14.5 21.7-23M515 210c1 8.4-5.2 18.8-14.5 19.2-10 .4-10.6-11.4-10.2-18.5.1-3.8-.3-6 2.3-8.7 1.1-1 3.8-1.6 5-2.6 1.7-1.4 2.9-3.3 4.5-4.8 8.5-7.3 14 8.6 13 15.4m-37.7-58.2a28 28 0 0 1 8.3 10.4 83 83 0 0 1 6.3 17.9c-1.5 6.8-8.1 24.7-18.6 20.4-10.8-4.4-11.1-18.2-11.2-27.5 0-6.8 3.7-28.4 15.2-21.2m71.2 31.3c.2 6.2-7.8 13-12.7 15.6-8 4.2-9.7-6.5-9.1-12.2.6-6.5 3.2-10 9.1-12.8 8.9-4.1 10.9 2 12.7 9.4m46.7-14.8h.1zm-64.3-84c-3 1-7.5 6.6-9.7 8.9-1.4 1.4-3.8 5.7-5.8 6-3 .3-2.7-1-4.7-3.5-7.7-9.1-15.7-9-20 2q3.8 1.8 8 1.4c.9 0 4.5-1.1 5.2-.7 4 2.7-1.8 5-2.6 6.3q-.9 1.5-1.1 2.7v.5-.4c-.6 2-1 3.3-4.4 4.4s-6.3.2-9.7-1c.4 6.8.4 18.9 5.1 24.4l.3.3 4 1.8h-.6c2.3.1 5-1 6.7-1.3-.7-3.3-4.6-14.7-2.8-17.1 3.3-4.6 4.7 2.2 5.5 5.3 2 7.3 6.1 16.9 12.7 21.5l-.2-.4c1.6.3 3.3.4 4 2.2l-1.4-.5c6.2 3 18 7.8 24.2 4.6 8.6-4.6 15.6-12 23-18.3-5.1-2.5-5.8-6.4-1.9-10.4 8.3 8.9 13.4-10.2 16-16-5-.5-9.6 2.6-14.8 1.5a39 39 0 0 1-13-4.7c-5-3.2-9.2-7.9-13.4-11.9-2.5-2.4-6-8.5-8.6-7.6M377.7 148l.7 3c1.4-2.7 1.4-2.7-.7-3m160.8-1.6c-2.1-.2-10.3-1.6-5-4 2.7-1.2 5.2 1.6 5 4M563 117c1.2 2.7-3.4 7.5-4.7 9.8-2 3.7-5.5 18.9-11.2 17.3-6.2 0-5.2-6-1.8-8.8 1.2-1 2.5-1 3.7-2.4 1-1 1.7-3.3 2.4-4.7 1.7-3.4 3.2-7.3 5.9-10 2.1-2.1 4.4-4.5 5.7-1.2m-234 18.2.7.1 1.3.1h-1.2zm-1.4-.1h.8l.4.1h-.7zM533 113.2c3 .4 1 1.8 2.6 3.1q1.4 1.3 1.2 1.5l2.5.1c2.9.3 11.8-2.3 6.1 3.4-1.2 1.3-8.6 4.7-10.2 4-3.7-1.8-2.1-9-2.2-12m3.7 4.5c-.7 0-.1.3 0 0m-118-27.6h.7zm-8.4-.5q2.5-1 5 0H412q5.7.5 11.2 1.2c16 2.6 34.8 4 50 10.3l-.1-.2q2-.4 3.2 1.3h-.4l5 2.8c2.5-5.4-2.1-3.8-6.4-5.7a38 38 0 0 1-12-8.7c-3-3.2-5.7-7.2-4.6-12 .5-2.4 3.3-3.4 3.8-5.2.1-.6-1.5-2.6-1.6-3.5-.2-2.1-.2-3.7.3-5.8 2.5-10.5 1.4-24 13.3-28.5 2.6-1 2.6.1 4.5-2 1.8-1.9 2.5-5.1 4.6-7.3a31 31 0 0 1 14.8-8.4c5.9-1.3 10.9.7 16.5.5 6.2-.2 10.8-2.6 17.2-.9 5 1.3 5.3 3.3 9 5.5s11.1.4 16 2c2.5.7 4 2.1 6.2 3.5 1.3.8 1.2 1.2 2.6 1.8.7.3 2.3 0 3.2.1 5.8 1.3 6.4 8.3 10.1 9.6 3 1 4.3-1 7.4 1.3 1.8 1.2 3.6 3.6 4.6 5.5.4 1 .9 4.2 1.3 4.7 1.3 1.5.7.7 2 1.6 2.5 1.7 5.5 1.7 8.3 4.7 3.8 4 8.4 7.1 9.3 13l.1 2.7v.6l-.7 5.2c-.2 2-.4 2 0 3.5.3 1 2 2.3 2.4 3.8 3.2 11.4-15.3 24.2-24.8 17.8-4 8.2-6.7 16.9-10.4 25.2-2.1 4.5-12.9 15-12 18.3.5 2.7 6.7 4.5 8.8 5.7l11.4 7.7 7.9 5.8 1.5 1.1h.3a7 7 0 0 1 3.8 2.9q3.3 2.2 6.7 4c3.6 2 4.5 2.3 6 6.1 1.6 4-.3 2.6 3 5 6.7 5 16.8 7 24.3 10.3a87 87 0 0 0 51.4 8c16.5-2.9 31.8-10.8 47.2-17a445 445 0 0 0 45-20.5c13.6-7.3 27.2-15 39.8-24.3 7-5.1 14.5-9.7 21.3-15.2 6.7-5.4 13-11.4 19.7-16.7q20.1-15.3 41.3-29.3 6-4 11.8-8.2c2.4-1.7 7.1-6.6 10.2-6 9.7 2 0 14.5-1.6 18.1 4.8-2.5 8.7-6.3 13.7-8.7 2.5-1.2 9.6-5.5 12.3-3.7 6.3 4.3-8.6 18.2-11 21.4 4-2.3 17.4-11.3 20.7-3.9 3.4 7.7-9 17-13.6 21.3-13.4 12.7-28.8 22.7-42.5 35-1.8 1.8-8 5.6-7.5 8.6.4 2.9 6 6.2 8 8.1 4 3.8 16.7 16 8.7 22.1-2.9 2.2-11 .4-14.4 0q-7.5-.7-14.8-1.7c-7.3-1.2-14.4-7-21.7-7.2-8.1-.2-17 7-24 10.5-8.2 4.1-16.2 8.7-24.4 12.8-15.7 8-30.6 17-46.8 24.2-17.8 7.9-36.8 13-54.4 21.4-17.8 8.5-35 11.2-54.6 10.6-19-.6-39.5-13.2-54.6-24l-2.6-2q-2.4-3.6-4.2-.1c-2.5.4-3.5.8-6.4.6-4.8-.4-7.2-1.5-11.5-3-10-3.7-17.5-6.6-24.5-15.2-4.6 12 7 24.6 13.2 34 3.4 5.1 7.3 10 10.3 15.5 2.4 4.4 3.2 11.3 7.8 13.2 2.8 1.2 4.4-.7 6.3 2 1.2 1.8-.1 3.9-.4 5.4-.6 3.9-2.4-1.6-1 4.1.3 1.8 2.9 5.3 3.7 7 5.8 11.2 10.4 23 15.4 34.7l14.5 34.7c2 5 5 9.6 7 14.7 2.3 6.2 3.8 12.6 6 18.9a55 55 0 0 1 1.4 32.4c-2.9 9.8-15.3 19.9-25.3 19.2 4.6 9.3 9.8 17.5 14.6 26.6 4.5 8.5 7.7 17.5 12.3 25.7 5.3 9.3 10 19.2 15.3 28.3 4.5 7.7 7.3 16.5 11.5 24.3 9.7 17.8 19 36.4 29.3 54 6 10.3 11.4 21 17.5 31.2l9.9 16.4c1.9 3.1 4 10 7.7 11.5-1 1.1-4.4 3.6-4.5 5.2-.3 4.2 4 3 6.3 2.4q9-2 17.7-5c11.1-4 21.7-9.8 33-13.3 11.8-3.8 22.8-10.3 35-13 5.5-1.3 23.7-9.1 25.3-2.6.3 1.2-.5 4.2-.5 5.7 0 2.6.7 5 .4 7.7a39 39 0 0 1-6.5 15 172 172 0 0 1-23.1 29.5c-15.2 15-29 35.3-47.8 46-3.7 2.1-7.2 6-11.4 7-4.7 1.3-8.7-.3-12.9-.4-2.3-.1-2.4 1.1-5.2 0-2.2-.8-5.2-3.5-7-5a91 91 0 0 1-12.6-13c-3.4-4-7-11.6-11.7-14.2-2.5-1.4-2.4.9-4.7-2.3-1.3-1.7-1.4-3.5-3-5.3-1.6-1.9-2.7-2.1-3.8-4.4-.8-1.6-.8-3-1.8-4.7-3.4-5.4-8.4-10-12-15.4-5.4-8-12.3-14.8-18-22.6a549 549 0 0 0-21.5-27.3c-14-17-27-35.7-40.4-53.6a600 600 0 0 1-40-61.1c-6.5-11.2-14.3-22.1-21-33.3-6.7-10.8-12.8-22.2-20.5-32.3-1.5 1.2 1 5.5-.8 7.2-2 1.9-11 2-13.4 2.4-8.4 1.4-17.3 3-25.8 3.3-17.6.7-34.9 4.3-52.6 5-4 .2-7-.4-10.9-1.2-5.7-1.2-6.7-1.9-8 3.7-1.7 8.6-3.8 17.7-4.6 26.4q-1.1 13.4-1 26.9l-.2 12.8c0 6.3 1.7 12.4 1.4 18.6-.4 7.9-1.8 14.8-10 17-4.6 1.3-4.7.6-7.9-1.9-3.4-2.6-7.8-5-10.7-8.1a96 96 0 0 1-22.2-43.4c-3.7-17.6 1.2-36.6 3-54.1.7-7.4 1-19.2 6.2-25 5.5-6.3 16.8-6 24.3-6.1q2.5 0 4.1-.5h-.8l1.5-.2c2-.7 3.6-1.8 6-3.2 3.6-2 8.7-3 12.5-4.4 10.3-4 21.1-6 31.6-9.5 8.5-2.8 16.8-4.5 25.4-6.6 6.3-1.5 12.9-1.8 19.2-2.9h-2.2c1.5-1 3.1-.5 4.7-.5l4.5-1.2c-9.8-17.9-18.9-36.2-29.8-53.5-2.4 4.3-6.4 4.4-11.2 3-2.6-1-3.7-3.5-6.2-4.5-1.6-.6-2.5 1.2-4.1 0-1-.8-1.6-3.4-2.1-5.6a78 78 0 0 1-17.7-31.8q4.5 8.8 9.2 17.4l2.6 4-.3-.5-3.7-6a175 175 0 0 1-18.5-58 310 310 0 0 1-2.9-57.3v-.1l.2-4q.8-11.9 3.6-23.7c.7-3.1 2.2-7.7 2.3-10.8 0-1.9-.5-11-1.1-11.6-2.4-2-11.6-.4-14.2-.2l-14.2 1.8-2.8.2q-2.8-.7-4 1.6c-2.5.4.6 2.5-2.8.5-4-2.4-4-11.1-4-15 0-1.6 1.1-7.9 0-9-.7-.8-6.2-.5-7.5-.6l-15.6-1.3c-10.3-.4-20.7-.1-31 0-18.1 0-35.4 8.3-50.6 17.7-7 4.3-14.8 7.3-21.7 11.7s-12.9 9.7-19.6 14.2c-9.3 6.4-19.2 11.8-27.9 19-4.1 3.6-9.7 7-12.7 11.7s-1 9.9-1.1 15.2c-.2 5.8.2 12-.8 17.6-.4 2-.7 5.7-2.5 7-2.7 2-2 .5-4.4-.8-10.2-5.7-12-16.2-15-26.3-16.9 22.7-28.1 48.9-44 72.3-2.5 3.6-6.8 11.2-12 7.5-3-2.1-3.5-6.3-3.2-10.4v-1.8 1.5-.3q.6-4.2 1.4-7.2c2-7.4 3.7-15 7.1-21.9l5.7-10c.9-1.8 3.7-5.3 3.6-7.3l-2.6 3.2c-4 2-7 8.2-10.3 11.3q-4.7 4.2-9.6 8.3c-6 5-11.1 10.3-16.2 16.3-3 3.7-6.9 7.1-9.6.4-2-5 1.2-9.6 3.6-14a97 97 0 0 1 10.4-15.9c3.5-4.2 8.4-8.7 9.8-14-7 4.8-13.3 10.4-20.9 14.5-6 3.2-15.7 3-12-6.7 2.7-7 11-15.5 16.5-20.6 5.7-5.3 12.2-10.2 18.3-15.1 14.3-11.3 30.1-20.6 45.1-30.9 13.7-9.4 27.7-18.2 41.3-27.4 30.6-20.6 60.5-43.7 95.9-55.5a355 355 0 0 1 50.7-12.8c8.8-1.5 18.2-3.7 27.1-4 3.3-.2 6.5.4 9.7.2 3.4-.2 7.6.7 10.9 0 3.5-.9 6.6-4.6 10-4.4 1 .1 2 1.1 3.1 1.4h.3c1.4-.1 2.8-1.3 4.2 0q7.2 0 14.4.4"/></g></svg>