<svg xmlns="http://www.w3.org/2000/svg" viewBox="0 0 1024 768"><g fill="none" fill-rule="evenodd"><path fill="#ff5678" d="M260 332.2c32.9 8.8 65.5 19 98 28.8 3.8 1.1 3.8 1.3 7-.7q13.4-8 27.3-15.4a375 375 0 0 1 86.9-34 661 661 0 0 1 65.8-12.7c-2.3 7-6.6 14.1-12 19-4.2 3.8-9.9 5.8-15 7.9-15.4 6-31.5 10.2-46.6 16.9a49 49 0 0 0-28 37.5c-.5 3-.5 3.5 2 5 2.8 1.8 6.3 2.8 9.4 3.9a621 621 0 0 0 77.5 19q20.7 4.1 41.5 7.4c8.6 1.2 17.7 3 26.4 2.4 37.6-2.1 59.8-46.8 70.8-77A341 341 0 0 0 781.7 376c46 6.8 104 7.2 140.5-26.7 17.3-16.2 28-38 35.8-60.1-25.5-2.2-51-6-76.2-9.9l-13.3-2c-1.7-.3-4.5-1.3-6.3-1-2.7.3-6.3 3.3-8.7 4.6a413 413 0 0 1-58.2 26.7c-10.8 3.8-22 7.2-33.3 8.3a108 108 0 0 1-36.6-4.3 249 249 0 0 1-85.4-38.4c-6 8.6-16.9 14.4-27.2 10.2C601.4 279 595 267 589 257.2c-2.2-3.5-6.3-3.5-10.5-4.6q-17.2-4.4-34.8-7.3a415 415 0 0 0-116.7-4.2c-37.8 4.4-75 16.6-108.4 34.9a196 196 0 0 0-40.7 28.6c-7.6 7.2-16.5 16.7-18 27.6"/><path fill="#000" d="M374.2 84.1a145 145 0 0 1 33 16.6c5.2 3.3 10.3 7.2 16 9.6 5 2 10.4 3 15.5 4.7 23 7.7 48 9.2 71.4 1.8 23.9-7.5 44.1-23.6 68.8-28.6 24-5 48.5-3.9 71.6 5 11.2 4.4 20.7 11.7 30.3 18.8 9.2 6.8 18.8 13.5 25.9 22.6 7 8.9 11 20 14 30.8a65 65 0 0 1 2.5 19.1c0 4.5-2.4 9-1 13.3 2 6.1 4.8 10.7 4 17.5a23 23 0 0 1-7 14.1q-6 6-14.1 8.4c-4 1.3-5.3 1-7.7-2.5-6.6 6-11.3 13.5-19.5 17.4a34 34 0 0 1-12.8 3.2c-3.4.2-6.6.3-9.5 2.4-3 2.2-14 11.9-9.8 15.7 2.4 2.3 8.2 2.7 11.3 4a77 77 0 0 1 12.7 6.6 148 148 0 0 0 46 19.5 222 222 0 0 0 53.3 6.8c16.5 0 33.7-1.2 49-7.8a78 78 0 0 0 20.3-12.8c6-5.2 9.7-12.6 15.8-17.5 4-3.2.3-8.1-1-12.5-2.4-8.9-4.3-19-5.1-28.2q-1.1-13.5-3.6-26.7c-1.6-9.4-5.2-18.2-7.6-27.3a40 40 0 0 1-1.6-21.6c1-3.4 3.4-7 6.7-8.7 3-1.4 4.8 0 7.5-.2a26 26 0 0 1 19.6 8c3.2 2.7 6.9 5.2 10 8.1 2.3 2.3 2.8 6 5.3 8 4.1-10.5 8.5-23.8 22.4-17.8 11 4.7 12.5 22.6 17.8 32 3-2.6 3.4-7.5 4.6-11s3.2-7.3 6.1-9.8c6.3-5.5 14-3.3 18.3 3.3 2.3 3.5 1 7.6 3.2 11.1s1.6 7.5 2.5 11.6q2 7.5 3.6 15.3c.4 2.4 1 5 1 7.5 0 1-1 2.8-.7 3.8.4 1.3 2 2.5 2.5 3.8.8 1.8.5 3 .6 4.8.1 3.3 1 6 2 9.2 2.3 8 1.7 18.3-1.8 25.9-1.8 4-3 6.9-3.6 11-.3 2.8-2.4 5.3-2.3 8.3.2 4 11.2 10.4 2.5 13.1-3.6 1.1-4.4.5-5.4 4.7q-1.3 6-3.7 12c-3.4 8.2-8.4 15.7-13.2 23.2a86 86 0 0 1-18.1 22.2c-7 5.6-15.2 10.2-23.2 14.3a116 116 0 0 1-54.9 12.8c-20.3-.4-40.9 1.5-61-2-20.6-3.5-40.7-9.4-61.3-13.3a93 93 0 0 1-26.2-8q-13-6.4-24.7-14.6c-5.4 12.9-8.3 26.3-16 38.1a108 108 0 0 1-24.7 27.5 64 64 0 0 1-34.5 13c-3.7.2-9.5-1.4-12.1 1.4-1.4 1.4-1.5 4.2-2 6q-1.7 4.5-3 9.1c-1 4.7 3.4 4.8 7.3 6.7q7.8 4 15.3 8.3c5.1 3 10 6.4 15.2 9.3 4.4 2.5 9 4.4 13.2 7.2 10.1 6.7 21.1 11.2 32 16.5 11.5 5.6 22.8 12 34.1 18 22.6 12 45.2 24.4 66.4 38.6 10 6.6 19.5 13.4 29.7 19.7 9.5 5.8 20.3 12.6 26.3 22.2 4.8 7.4 11.5 11 19.3 15 4.6 2.4 7.5 2.8 11.2-1q5.4-6 11-11.4a395 395 0 0 0 42.6-48.8c9.8-12.8 23.3-28.3 41.3-25.4 5.4.8 9 3.3 13 6.9 2.7 2.4 7.6 4 9.4 7 1 1.8 1.5 4.1 2.5 6 1.1 2 2.5 3.9 3.2 6 1.3 3.7-1.4 9.5 1.2 12.4 2 2.2.2 7.3-.4 9.8-1 4.5-1.8 9.1-3.3 13.5-1.3 3.5-2.5 8.2-5 10.9-2.4 2.4-5 2.1-4.5 6.3-2.5-.8-4.6 5.2-5.3 6.7a41 41 0 0 1-7 10.7 95 95 0 0 1-26.6 19.6c-3.6 2-11.2 4.8-12 9.3-.9 4.4 1.6 8-.1 12.6-3.7 9.7-11.9 20-18.5 27.8-6 7-12 11.8-21.6 10.1a64 64 0 0 1-24-10.7c-8.7-5.8-17.7-10.2-27-14.8-4.5-2.3-9.1-4.4-13-7.7-3.7-3-6.9-6.4-11.2-8.7-3-1.6-7-2.7-8.2-6.3-1.4-4 1.1-6.3 3.3-9.1 1.4-2 2.2-2.2 1-3.7-1-1.2-3.7-2.2-5.1-3-3.3-1.8-6.6-3.3-10.2-1.4-3.9 2.2-6.6 6.7-9.5 10q-5.6 5.8-11.4 11c-7.7 7.1-16.2 13.4-23.7 20.7-1.7 1.6-5 5.8-8 5-2-.5-1-1.8-2-2.7-1.2-1-2.2-1-3.6-2.2-3.7-2.8-4.9-8-8.8-11-4-2.9-8.9-5-13.2-7.4-19.7-11.1-39-23-57-36.8-9-6.8-17.5-14.3-26.3-21.5-4-3.4-8.3-7.1-12.8-9.9-4.2-2.5-8.9-4.3-13.1-6.7-9.1-5.1-19-9-28-14.4-4.2-2.5-7.3-6-11.3-8.7-3.4-2.5-6.3-4-8.9-7.5-1.2 2.7-4.6-.8-5.8-1.6q-1.7-.9-3-1.9c-1-.7-1.5-2.4-2.1-2.9-1.5-1.2-3.3-.9-5.3-1.6-2.7-1-6.2-3.5-8.3-5.5-1.4-1.4 1-.3-1.5-2-1.1-.7-3-1-4.3-1.8-3-1.9-5.7-4.4-8.6-6.5-5.2-4-11.9-7.5-14.8-13.5-15.8 13-31.1 27-49.2 36.7-17.6 9.4-37.8 13.7-56.6 20.2-19.2 6.6-38.7 13.3-58.2 19q-14.5 4-29.1 6.5c-10 2-19.8 1.4-29.8 2.4-5 .6-9.9.4-14.8.9-4.6.4-9 1.6-13.4 2.2-4 .5-8.5 0-12.3 1.1-2.8.8-6.5 3.6-8.6 0-1.5 2.2-2 1.1-3.9 1-2-.1-2.7 0-4.7.3-3.4.7-7 1-9.8-1.7-1.3 4.7-13.8.4-15.3-2.7-1.7 5-16.9.7-17.1-4-.2-3.9 2.4-9.5 3.5-13.2q2.8-9 6.2-17.8l7.4-18.5q1.4-4 3.3-8c.6-1.4 2.2-3.3 2.2-4.8 0-4.4-8-4.7-11.2-5.8q-3.8-1.2-7.4-2.8c-1.8-.8-3.8-2.8-5.8-3-4.3-.6-3.3 4.3-3.8 7.4q-.8 6-7 6c-4.8 0-18.6-8.4-21.2-2-1.2 3-1 8.7-1.4 11.9q-.9 7.8.3 15.7c1.2 8.6 5 19.5.7 27.7-8.7 16.5-39 6.6-48.7-3.8-14.3-15.3-13.9-38.2-7-56.7 3.3-9 8-18.6 14.4-26 2.8-3.2 8-6.3 9-10.8.8-3.7-2.1-7.1-1.5-11 .7-4.4 4.5-7.2 7.8-9.9 3.4-2.8 6.7-6 10.6-8.1 9-5.1 19.1-2 28 1.7 9.8 4 19.1 9.6 27.9 15.5 4.3 3 8 5.7 13 7l11.9 3.3c3.7 1 6.8 1.7 9.4-1.5 2.9-3.6 3.8-5 8.8-5.1q8-.1 15.9.3c1.1 0 3.6-.3 4.5.6s-.3 2.6.4 3.1c1.2.8 7.7-8.4 8.3-1 .3-3.6 4.1-1.8 6.3-1.3l2.3.5q1.2-.4 2 .7 1.4.2 1.8-1c9.3-.2 18.6.4 27.9.4 10.7 0 21.5-.2 32.1-1.8l11.9-1.8h5a4 4 0 0 1 1.8.9q.4-.8 1.2-1.2c6.7-2 13.7-3.3 20.5-5 4.8-1.3 8.9-2.2 13.6-2.5l1-.1 1.9.6a3 3 0 0 1 1.3-1.6q2.3-1 4.6-1c6.7-.8 13.2-.7 19.6-1.7 3.3-.5 15.4-2.4 17.7 1 1.7-4.1 14 1.4 17.7-1-5.6-7.7-8-15.9-9.7-25.2a74 74 0 0 1-.2-30.8 53 53 0 0 1 14.5-25.3c6.8-6.3 8.4-13.8 13-21.6a75 75 0 0 1 42.4-32.2q14.2-4.6 28.6-9c7.8-2.4 14.3-5.8 18.2-13.3-33 0-64.6 10.3-94.8 22.7a1682 1682 0 0 0-44.9 19.2q-11.4 4.9-22 11.3l-2 1.2-6.6 4.4c-.5.4-3.3 2-3.5 2.6-1.2 4.2 5.7 10.9 7.5 14.4a43 43 0 0 1 5.2 16.1c.3 6.6-3.8 9.9-10.3 8.5-8-1.6-13.9-8.2-20.2-12.8-1.4 4.2.4 9 1.4 13.2q2.1 8.4 3.7 17c1.3 8 .3 17.1-7.7 21.4-20.4 10.7-30.8-17.7-35-31.8-2.8 2-2.4 9.4-3 12.5-1 6-2 12.3-4.7 17.8-2 4.2-5.5 9.1-10.6 9.6-5.5.4-10-4.3-12.4-8.6-4.2-7.6-5.2-16-5.6-24.4 0-2 .5-19.2-1.4-19.6-5.5 9.9-8.6 20.9-15.1 30.4-5.7 8.2-14.3 13.9-22 4.3-12-14.9-8.1-36.3-3.2-53q4.1-14.6 12-27.7c2-3.6 4.7-6.3 7.4-9.4 2.2-2.6 3-3.9 2-6.9-.5-1.8-1-1.8-.5-3.8.4-1.4 1.4-3 2-4.4q2.6-5.6 5.8-10.8a87 87 0 0 1 17.3-19.4l.7-.6 2.5-2c1.2-.7 1.7-3.2 3-1v.2c.2-3.2 3-5 5.2-6.8q1.2-1.2 2.8-2c.7-.3 2.4 0 3-.4 1-.7 1.4-2.2 2.4-3.1 1-1 2.3-1.3 3.4-2l7.9-5.4a176 176 0 0 1 17.5-10.2q19-9.6 39.5-16.3 17.8-6.2 36.2-10.8c12.5-3 25.6-2.2 38.4-3.5a415 415 0 0 1 117.2 6.1 111 111 0 0 1 35.7 11.4c2.3 1.4 6.4 5.7 9.1 5.6 2.3-.2 4.3-4.4 5.4-6 2.5-4 5.7-7.5 7.8-11.7 2.7-5 4-10.8 6-16.2-9.2 1.3-19 2.1-27.8-1.4-8-3.2-13.5-9.7-19.5-15.6a34 34 0 0 0-22.2-11c-10.3-.7-19.5 3-29 6.4-20 7.3-40 15.3-60.5 20.8-10 2.6-20.4 4.8-30.8 5.2-5.3.3-10.7 0-16 1-2 .4-2.7.8-4.5-.2.3.1-2.1-3.9-2.6-2.3-.5 1.5.3 2.7-1 3.8-1.6 1.3-5 .7-6.8.5-2.7-.2-4.8-1.1-7.4-1.7-4-1-8.5-.3-12.6-.9-2-.2-3.3-.7-5-1.2s-.6-.5-2.5-.7c-1.6-.2-2.6 0-4.5-.7q-2.6-.8-5.2-1.3-2.4-.7-4.6-1.6c2 .6-2.5-1.2-2.3-.7-.5-.5-1-1.6-2-1.8h-.2c3.2 4.8-10.6-.3-11.5-.6-7.6-2.3-15.4-7.5-23.3-8-7.8-.5-15.3 4.8-21.5 8.7l-22.6 14.3a256 256 0 0 1-53.2 26.5Q205.8 266 192 270c-4.1 1.2-8.7 1.7-12.6 3.5-2.7 1.1-6.6 4.7-9.3 1.5-1 2.8-6.3 2.6-8.6 2.7-.3 0 .2.7-.6.6-1.1 0-1.4-1.2-2.3-1.4-1.9-.5-2.1.2-4 1-2.3.9-1.9 0-4-.1-1.2-.2-2.5.5-3.7.5-.5 0-1.1-.8-1.9-.8-.6 0-2.2.9-3.2 1-2.2.3-4.9.1-7.2 0-3.3-.1-36.1-3-33.8-10-4 3.7-13.1-2.2-17.2-4.1-1.6-.7-1.7-1.4-2.5-2.2q.3-1.5-1.3-1.3h-.6c-1.8-1-2.5-1-4-2.6-1.9-2.2-5.4-4.1-6.4-7-.3-.7 0-2-.2-2.6-.4-.7-1.3-.7-1.5-1.3-.1-.2.3-1.6.2-1.6-1.6-1.4-4-.8-5.9-2.4a42 42 0 0 1-10-20.5c-4-17.2-5.4-34.5 2.3-50.8q5.8-12 13.5-22.6c1.5-2 3-4.6 4.7-6.2.9-.8 2-1 2.3-1.4 2.1-2.4 3.2-5.4 6-7.7q4.7-4 9.8-7.4c3.1-2 7.1-3.3 10-5 .8-.6.6-1.4 1.4-2q1.6-.7 3.2-1c1.2-.3 2.8-1 4-1.1 2.5-.2 3.3.5 5 2.2 0-6.6 12.2-7.5 17-7.5 2.4 0 13.7-1 13.5 2.4 2.6-3.4 10.4-.9 13.9.2 4 1.2 6.7 4.2 9.3 7.4l1.5-3c.7.5 3.2 1.3 2.4 2.7 3-2.6 1.3-.4 3.8 0 1.1.2 2.1-.2 3.3-.3 0 1.5-.6 2-1.6 3.1 2.3 0 11.2-.9 4.6 2 .9 1.6 5 1 6.5 1.2.8.1 2.7.2 3.1.7s-.2 1.4-.1 1.5c.6.9-.7 1.3.6 1.6.3 0 1.3-1 1.5-1 1.7 0 .5-.3 2.3 0 .6 0 1.8.8 2.6 1 12 2.4 26.6-6.8 35.3-14 10.4-8.5 19.5-17.7 32-23.2 12.1-5.4 25.6-9.6 38.4-12.6 23.8-5.7 47.4-5.8 70.8 2M677 630.3l1.2.6 1.6-.8c-1.6-.7-1.7-1-2.8.2m127.7-34c-2.8 1.8-5.3 6-7.8 8.4q-5.4 5.2-11 10c4.3 1.5 10.5 7.5 15 4.7 2.4-1.3 3.8-5.2 5.3-7.3q3.4-4.9 7.4-9.3c2.7-3-5.8-8.4-8.9-6.5m-270.2-62.1c1 .5 3.6 3.2 2.4 4.2-1.1-1.4-2.7-2.3-2.4-4.2m-367-43.7c-2 1.8-4.4 5.6-5.9 8-1.6 2.7-1.7 4 .8 5.8 4.8 3.4 11.9 4.4 17.5 6 3 1 6.6 3 9.2.3s2.5-7.7 3.6-11l2.9-8.1q-8 1-15.8-.7c-3.8-.8-9-3.1-12.3-.3m91.2-144.3a145 145 0 0 0-24 51.6c-2 8.2-4.8 19.7-.4 27.6 9.7 17.2 29.2-32.4 32.2-37.6 1.8-3 4.6-6.4 7.6-2.4 2.5 3.3 1.7 8.5 1.8 12.3.4 11.4-1.2 25 3.3 35.8 1.5 3.5 5.5 8.6 10 7 4-1.5 6-8.4 7.2-12 4-11.2 6.7-25 6.8-36.8 0-2.4-2-18.2 3.4-14.7 3.7 2.3 3.5 13.4 3.9 17 1.3 14.2 4.1 38.3 21.7 40.7 4 .5 8.3-.4 10.6-4 2.8-4.2 0-10-1-14.6-1.7-7.9-3.7-16-3.8-24-.1-5 .3-13.2 7.3-11.3 8.4 2.3 12 13.3 21.3 13.6 0-2.2-1.2-4-2.2-5.8-3.4-6-9.5-11-11.5-17.7-.7-2.1 0-5.4-1.3-7.2s-4.2-2.1-6-2.5c-12.8-2.6-25.3-6-38-9-13.4-3.2-26-6.6-38.6-12.1-5.7-2.5-7 1.7-10.3 6m303.2 89 5.6 2.6c1.7.7 2.3.1 3-1.4-1.2-.2-7.9-2.6-8.6-1.3M482 243c-24.2.7-47.9 1-71.7 5.6a422 422 0 0 0-33.8 7.8 46 46 0 0 0-13 5.3c-1.5 1-5.5 4-6.2.6-2 2-6 7.9-9.2 4.6-.6 2.4-2.4 2.3-4.1 3.1-.6.3-1 1.3-1.7 1.6-.2.1-.3-1.3-.6-1.3-1 0-1.9 2.1-2.4 2.7a10 10 0 0 1-4.7 2.4q-1.3.4-2.6.5-1.5.7-1.8-.9c-1.4 0-2.4.6-4 1.2 3.3.8-2 1.6-2.8 1.7 0 2.3 2 .8 3.3 1.3-.7 3-6.2 5.3-8.5 6.8l-1.1-2.5a7 7 0 0 0-1.5 2q-.4 1.5-2 1c-1.1 1-1.3.5-2 1.7s1.4 3.6-1.5 2.6c0 4-3.8 1.6-3 .5-3-.2-4.2 5-3.8 7-1.4-1.3-2.2-1.2-3.6-.1h-.1c1-.7 0 2.2.1 2.2-2.9 3.8-2.6-.5-1.7-2.7-2 .8-2.4 2.9-4 4.1-1.3 1-1.7.6-3 .7-1.8.3-1.2-1.3-2 .8-.4.9.1 2.4.1 3.4.8-1.1.5-2.9 2-3.5-.4 3.2-6.7 14.2-9.3 7.7-2.5 1.8.3 3.7-1.4 6-1.2-1.1-1.5-3-1.4-4.7-.8 1-.7 2.4-1.3 3.4-.7 1.1-1.3 1.2-1.6 2.4-.5 1.8 1 1 .2 2.8-.4 1-2.4 1.8-3.1 2.4-2.8 1.9-5.5 4-2.9 7.2 4.2 5 15 5.5 20.9 6.3 12.5 1.8 24.6 4.7 36.9 7.4q11 2.5 21.9 5.7c5.2 1.5 12.4 2.5 15.1 8 14.6-14 34-21.2 51.8-29.5 19.5-9 39.5-17.4 60-23.5a311 311 0 0 1 55.8-9.2c5-.5 12.6-1.7 17 1.3 2.8 2 3 4.8.8 7.3-1.1 1.4-2.3 1-3 3.4-.6 2-.3 3.3.2 5.2-1.2-1-3.5-.4-4.1-2.1v-.2l-.1.2c-.9 3.4 5.1 3.8 3.3 7.9l-.2.2c-.6 1.3-.6-2.7-1.2-2.7-1.5-.1-2.7 3.5-3.3 4.4 2.8 0 1.7 2 .2 3.1-1 .8-3 1-4.2 1.6-2.5 1.2-4.7 3-7.3 4.2-2.8 1.3-5.3 1.3-8 2.1l-2.4.8c-.2 0-.3.7-.5.8-1.8.2-3.1-1.5-4.9-.8-.6.3-.3 1.9-.8 2.3-.7.4-2.5-.1-3.3-.2-1.8-.1-2-.3-3.5.5-2.6 1.5-3.9 3.5-7.2 3.8-2.7.3-4.4-.2-7 .8s-5 1.2-7.4 2c-.3 0-.4 1-.7 1.2-.8.2-1.8 0-2.6.3a21 21 0 0 0-5 2 101 101 0 0 0-21.2 17.3c-2.7 3-10 10.2-7.7 14.4 1.6 2.7 7 4 9.6 5 4 1.8 8 3 12 4.6 5 2 9.5 5 14.6 6.7 5 1.6 10.2 2 15.2 2.8 22 3.8 43.4 9.8 65.4 13.6 12 2 24.3 4.6 36.5 2.6 10.7-1.7 21-6.5 29.7-13.1a94 94 0 0 0 32-48.2c1.1-4 1.4-13.7 5-16.1 3-2 4.7 2.4 6.6 4.1 3.2 2.8 8 4 11.8 5.5 9.6 4 18.2 8.2 28.3 10.9q15.5 4 31 7.1c21 4.6 41 8.9 62.6 9 21.4 0 42.8.8 63.9-3.1 18.5-3.5 37-12.9 50.8-25.6 7-6.5 12.4-14.6 17.9-22.3q4.5-6.1 8-12.9c1.6-3.3 4.5-8.1 4.8-11.9.3-3.4-1.7-2.9-5-3.2l-15.6-1.4c-10.4-1-20.8-2.5-31.2-3.6a200 200 0 0 1-31.6-5.4c-3-.9-5.4-2-7.6 1-1.4 2-1.3 6.4-4.3 3.2-5.6 7-13.9 11.4-21.6 15.8-8.3 4.9-16.5 10.2-25.3 14.1-19 8.4-40 7.8-60.3 5a249 249 0 0 1-60.7-14c-8.9-3.6-16.5-9-24.4-14.3Q661 289 655 286c-4.5-2.3-7.2-5.7-11.3-8.4-2.7 8.9-13.2 12-21.5 12.4a29 29 0 0 1-25-12.5c-5.2-6.7-6.2-16.7-14.3-20.3-9.2-4.2-20-5.8-29.9-7.8a325 325 0 0 0-71.2-6.5m122.7 68.3c2.6 1.2 10.2 9.9 4.2 10-3.8 0-6-4.7-10.3-4-1.9.3-4.7 1-5.2 2.5-1.1 3.6 4.2 6 6.5 7 3.6 1.5 6.5 3 8.4 6.6 3 5.5 3.8 14.3-3.2 16.8-5.2 1.8-11.6.4-16.8-1-4.3-1.3-7.6-5.7-5.6-10.2.6-1.2 2-3.4 3.8-2.6 1.4.7.8 1.9 1.2 3 1.7 4.5 14.5 10.9 17.5 4.1 3.6-8.2-10.1-10.7-14.3-13.5-5.4-3.6-5.5-9.7-1.4-14.3 3.6-4.1 10-6.7 15.2-4.4m22.6 28-.8 6c-.3 1.6-.3 3.3-2.2 4-1.3.4-2.5-1-3.7-.1-1.4 1-.7-6.2-.7-6.6.4-2.7 1.2-8.2 3.7-9.9 4.4-2.8 4 4.2 3.7 6.6M627 328c-4.6 3-5.8-5.4-4-8.1 4.6-6.8 11.4 3.5 4 8.1m-94.5-4c1.3.9.9.3.9 3-1.6 0-1.3-2-1-3m5.3-2.4c-.4 1 1.6 2.3 2.3 2.5 0-.3-1-5.4-2.3-2.5m-252.5-15.2c-1.2 1.8-.5 2.9 1.4 2.1h.2zM310 289l-1.2.5-1.7 1.6c1.7-.3 2.8 0 2.9-2m6.5-2.5c-.8-1.7-3.6 1.6-3.6 2.4.6-.4 4.6-.5 3.6-2.4m2.6-5.8q-1 1.4.4 2.2a12 12 0 0 0 1.8-3.4c-1-.8-1.8.2-2.2 1.2m533.6-118.1c-2 .9-1 4-.7 5.8l3.4 24.3c1.3 11.4 1.5 23 3.6 34.4 2 10.3 5.3 20.4 7 30.8 1.2 6.9-1 15 7.2 17 7.5 2 16 2 23.7 2.9q14.7 1.5 29.6 2c4.6.3 9.5.3 14.1 1 2.7.5 6.1 2.3 8.2-.2s2-8.8 2.7-11.9q1.4-6.2 2-12.5c1-9.5-.4-19-1.7-28.4l-3.8-30.6c-.9-6.5-.8-17.1-5.3-22.4a126 126 0 0 0-5.4 38.2c0 2.7-1.9 18.6-6.7 10.9-1.3-2.2-1.3-3.4-3.4-5.2a10 10 0 0 1-3.6-6.2c-1.3-5.2-1.6-9.7-4.4-14.3-5.8-9.5-8.1-21.1-16.7-28.7 0 8.8-1.4 18.4.3 27.1 1 5.5 5.2 13.4 1.8 18.8-1.8 2.7-2.8 2-4.8.6-1.4-1-1.2-1.3-2.8-2.2-1.6-.8-2.8-.8-4.3-2-5.3-4-5.7-11.2-7.4-17.1-3.8-13-17-21.2-27-29.2-1.1-1-3.9-3.7-5.6-3M654.1 189a41 41 0 0 1-23.9 2.6c0 1.8 2.6 4.7.6 5.7-.5.3-3.2-1-3.7-1-3-.8-7-2.1-10-1.5-3.3.7-3.2 2.8-1 5.2 3 3.3 10.5 3.5 10.5 9 0 2.5-1.4 5.5-1.7 8q-.6 5.6-1.9 11-2.4 9.6-6.9 18.1c-2.5 5-5.5 10.2-10.2 13.5-3 2-1.8 1.1-1.2 4.2.4 2.1.3 3.7-2.4 3.2l-1.5-.5c6.3 10.4 22.3 17 33.3 10-4.7-3.7 1.6-10.2 4.3-13 4-4.1 8-8.9 12.3-12.6 6.6-5.8 15-3 22.8-5.4a40 40 0 0 0 18.5-14.2c4.5-5.5 10.4-12.2 11-19.7.2-1.4-.5-3.2-.3-4.5.3-1.4 1.1-1.6 1.6-2.6q1.2-2.7 1.3-6c.4-7-1.8-8.2-8.5-10l-11.7-3c-3.7-1-7-2.9-10.6-4-7.7-2.2-14 4.8-20.7 7.5m19.8 44.6c6.2 3.7-3.5 6-7 4.4-4.9-2.2 3.6-6.5 7-4.4m11.6-30.9c5.5 6.6 11.7 20.1-.5 22.9-3.7.8-9.5 2.2-13.3 1.1-5.4-1.4-4-8.5 1.4-8.8 3.2-.2 10.5 2.3 12.4-1.4 1-2-1.3-5.2-1.7-7.2q-.7-3.7 1.7-6.6m11 2.3c3.8 0 2 8.2 0 9.6-3.4 2.5-4.9-9.6 0-9.6m-25.5 6.2c-4.4.5-3.4-10.2.6-10.6 5.4-.4 4.6 10-.6 10.6m38.8-17.8c-.6 1-.2 11.7 1.1 11.9q.4-3.9.1-7.8v-.7s.3-6.5-1.2-3.4"/></g></svg>