<svg xmlns="http://www.w3.org/2000/svg" viewBox="0 0 1024 768"><g fill="none" fill-rule="evenodd"><path fill="#ff5678" d="M344 337.5c5-19.6 9.8-39.5 17.2-58.3q7-17.6 14.6-35c.7-1.6 1-3.2 2.3-4 1.8-1 5.5-1 7.5-1.4a841 841 0 0 1 86.4-11.5c33.1-2.6 65.4-1.4 98.1 4 28 4.6 55.7 11 83.1 18.2l12.1 3.3c1.9.5 5 .8 6.6 2 3.5 2.2 4.7 11.8 6 15.9 1.8 5.4 2.8 12.8 6.1 17.5 5 6.8 12.7 12.8 19 18.5 21.7 20 45.5 38.2 73.6 48C820 370 866 379.6 911 389l3.1.7-35 38.7-19.6 21.8c-3.4 3.7-3 4.4-7.8 3.4q-36-7.7-71.3-17.9a200 200 0 0 1-34-12.4 343 343 0 0 1-42-26.6 803 803 0 0 1-35.4-26.9c-2.3-1.8-10.5-10.6-13.2-10-2.3.5-6.3 5.7-8 7.2l-13.4 12c-7.1 6.4-14.4 14.1-22.8 18.9-8.8 5-18.9 8.4-28.2 12.4l-15.5 6.7c-1.4.6-3.3 1.8-4.8 1.9-4.3 0-10.6-3.5-14.6-4.8a678 678 0 0 1-30.7-11.3c-21.6-8.6-45.4-17.9-63.2-33.3a37 37 0 0 1-8.2-9.3c-.7-1.3-1.7-3-1.8-4.5-.1-2.3 1.2-2.8 3.2-4.2 10-7.6 21-14.2 31.7-20.9l7.6-4.6-125.4 10z"/><path fill="#000" d="M530.8 98.6c13.3.6 26.9 1.2 40 3 13.1 2 25.3 6.7 37.2 12.4 21.3 10.4 43.1 23 56.9 43 6.4 9.3 11.6 19.1 20.5 26.5 2 1.7 4.3 3.7 7 4.3 2.2.4 4.2-.5 6.3-.6 4.1-.2 5.6 2 5.6 6a21 21 0 0 1 9.8-1.9c2.8.4 5 2.1 7.7 2.8 4.9 1.3 9.6-.6 14.2-2a94 94 0 0 1 36.7-5.1c8 .8 17.8 4.3 13.6 14.7-3.4 8.6-16.4 13-24.5 15.1-7 1.8-16.3.2-15.8 9.8.5 6.7 1.5 13.9 8.6 16 3.9 1.3 17.7 3 9.6 9-6 4.5-8 12.4-12.5 18.3a46 46 0 0 1-22.8 16.3c-10.3 3-21.1 2.5-31.6 3.7 7.4 10.2 18 17.3 27.8 25 10.3 8.2 20.2 17.2 32 23 10.6 5.2 22.1 8.8 33.1 13.3 11.5 4.6 23.1 9.2 35 12.9 24 7.3 49.3 12.4 74 16.9 12.1 2.2 24 1.9 36.4 2a251 251 0 0 1 37.6 4.7c6 1.1 12 1.8 18 3 3 .5 14.3 1.6 14.8 5.8.6 7-6.8 10.8-12.3 12.7-2.3.8-6 .7-8 1.8-2.2 1.2-1.4 3-1.6 5.4q-.7 5-5 7.8c-2.3 1.5-5.1 1.5-3.5 4.4.7 1.4 2.6 2.3 3.4 3.7q1.5 2.4 1.2 5.3a8 8 0 0 1-5.6 7c-4.8 2-10.6.6-15.6 0-8.3-1-16.8-1.1-25-3-8.6-1.9-17-4.8-25.6-6.8q-6.6-1.3-13.2-3.2c-2.8-.9-6.8-3.2-9.8-2.5-2.8.7-5 4-6.8 6l-7.6 8.2-5.3 5c-.6.6-4.3 2.9-4.4 3.5-.1 1.7 4 1.7 4.8 2.4 5.1 4-2.5 6.5-5.8 6.3q-11.4-.7-22.7-2.5A284 284 0 0 1 736 425.5q-22.5-13-43.6-27.8a125 125 0 0 1-19.6-15.7c-5.7-6-10.3-12.7-15-19.4-11.3 10.9-22.2 22.3-34.3 32.3-11.5 9.5-25.3 14.6-38.7 20.7.4 2.8 13.5 4.5 15.9 5.2 11 3.4 21.4 8.7 32 12.9 17.7 7 34.5 16 40.3 35.3 5.8 19-.9 38.1-9 55.3a300 300 0 0 1-53.8 78c-5.5 6-10.3 13.1-8 21.6 4.5-1.4 5.3 2 2.4 5-2.6 2.6-7 3.1-10.5 3.6a146 146 0 0 1-31.7-.2 164 164 0 0 1-55.4-14.8c-8.6-4.2-11.7 2.5-17.6 7.6-4.7 4-11 6.7-14.6 12-3 4.2-1 11 5 9.4 4.7-1.2 8.5-6.5 13.4-6.7 8.9-.3-7.8 12.3-10 13.8 4.3 3.8 9-1.4 13.3-2.3 4.1-.8 5.3 1.3 3 4.7-1.6 2.7-7 4.6-3.4 7.8 3 2.6 9.5 4 13 5.2a201 201 0 0 0 34.2 8c3.7.5 9.8.1 12.9 2.8 4 3.5 2 9.4 0 13.4-7.7 15.4-23.8 23-40.4 24-10.2.7-20.4 0-30.7.6-11.2.6-22.4 1.5-33.6 1.1-18-.6-29.5-13.6-38.5-28q-8.5-13.5-16-28c-1.9-3.7-6-7.6-6.6-11.8-.6-3.7 1.8-6.8 4.1-9.4 6.2-7 13.6-12.4 20.8-18.2a22 22 0 0 0 7.6-11c1.5-4 4.5-5.7 7.1-9 2.9-3.5 2-4.1-.3-7-2.3-3.1-1.4-7.6-.4-11 1.4-5 4.5-6 9-7.7 4.1-1.4 7.6-4 11.3-6.4 18.1-11.6 35.2-24.9 53.6-36.2 18.1-11.3 37-21.2 54.3-33.7-14-1.9-26.4-9.4-39.6-14q-10.3-3.3-20.1-7.6c-2.5-1-5.5-2-7.7-3.7-2.3-1.6-4-3.7-6.4-5.3-5.5-3.6-12.2-5.7-18.2-8.6q-9.9-4.5-19-10.3-8.5-5.4-15.7-12.7c-3.8-3.8-7.4-8.8-12.7-10.6.6 7.4 9.7 13.5 14.7 18a231 231 0 0 0 25.6 19.2c-10.2 8.7-22.6 14.4-34.5 20.2-13.4 6.7-26.4 14-39.7 20.7-11.3 5.7-23.2 10.1-34.7 15.4a380 380 0 0 1-38.1 14.8c-11.7 4-22.7 8.1-33.8 13.7a211 211 0 0 1-33.7 12.9 333 333 0 0 0-37.6 12.8 188 188 0 0 1-34.3 10.5c-3.9.8-8.9 2.4-11.6-1.4-2.1-2.9-2.4-7.3-3-10.7-2.3-12.9-2.5-26-4.5-39-7.8 2.4-15.2 5.3-23.4 5.7-5.2.2-8.4.7-9.6 6.4 3 .3 13.6.5 14 4.7.2 3.8-6.3 3.9-8.6 4-4 .2-7.8-.5-10 3.5 3.2 1.2 10.4-1 11.8 3.4 1.9 5.6-6.5 5.5-9.5 6-5.3.8-4.7 4.9-4.4 9.3q.6 8.7 1.7 17.4c1.6 12.3 4.5 24.4 5.8 36.8 1.2 10.7 1.9 21-5.8 29.5-3 3.4-7.3 7.3-12.1 7.8-5 .4-4.9-3-7.9-5.6-1.9-1.5-4.3-1.9-6.6-2.7q-4-1.6-7.6-4A43 43 0 0 1 69 647.4c-12.3-16.6-16.6-41.4-17.9-61.5a252 252 0 0 1 1.2-38.3q.9-10.2 2.1-20.5l.9-6.4c0-1.2-.5-3.7 0-4.8-.7 1.5-2.1.4-3.5-.8-2.9-2.4-2-7-.5-10.2 4.7-9.6 18.6-10 27.6-10.7 24.4-2 47.5-8.6 70.7-15.5-3.2-5 2-8.2 6-9.9q9.3-3.8 18.7-7.4a323 323 0 0 1 42.6-14.4c13.4-3.3 26.3-8.7 39.5-12.6q20.4-6.3 40.4-13.5c26.5-9.5 53-19.1 78.8-30.5q9.7-4.6 19-9.6c5-2.7 11-4.7 15.4-8.6 4.1-3.8 6.6-9 11-12.4 4.1-3 9.6-3.1 13-7 4.5-5 10-7.3 16-10.3 2-1 15-5.9 14.8-8.7-9.3 0-18.8 2.8-28 4-9.7 1.4-19.5 3-29.2 3.7q-23.9 1.8-47.6-.8c-2.3-.3-11.8-2.2-13.4.3-1.3 2 1.8 4.2 1.9 6.3 0 3-2.4 4.7-5.2 3.6-5.4-2-4.6-10.7-4.1-15.2 1-8.4 3-16.8 5-25a165 165 0 0 0-31.4 20.9c-7.4 6.2-14.1 14.6-22.9 19-8.3 4.3-13.3.6-13-8.7q.3-6.4 2.5-12.3c.7-2 3.6-7.3 2.3-9.3q-11.4 9.3-23.3 17.9c-5.7 4-14 10.1-21.4 8.5-6.5-1.3-5.9-8.6-3.8-13.4 1.8-4.2 5-8 8.2-11.2 2.7-2.7 6.5-5 7.8-8.7q-13.2 5.8-27.1 9.7c-6.6 2-11.1 10.2-18.8 9-7.6-1.2-4.6-10.7-1.5-14.8q3.3-4.3 8-7.5c2.7-2 7-3.9 8.3-7.3-8.9 1.7-17.8 4.6-27 4-5.5-.3-14.6-2.6-13.5-10s11-8 16.5-9.3c7.6-2 14.8-5.5 22.2-8.2a629 629 0 0 1 44.8-14.1l4.8-1.4c17-5 34.1-9 51.3-13.2q12.8-3.2 25.6-5.9c8.3-1.7 16.8-2.6 25-4.6-7-10.5 1.5-19.1 10.6-24.1-5.8-1.2-11.6-1.9-17.4-3.3-4.8-1.2-9.5-3-14.4-4.1-8.5-1.8-17-2.8-24.1-8-13.7-10-14.8-25.6-3.3-37.5a66 66 0 0 1 45-18.2 152 152 0 0 1 56.2 9.4 100 100 0 0 1 24.4 12.6c5 3.7 12.7 10.8 19.3 10.8-8-9.5-17.6-19.4-19-32.3a39 39 0 0 1 13.5-33.2c18.6-15.8 49.3-14.4 72.1-13.3M424.8 623c-5 7.6-11.7 13.7-18 20-2.2 2.1-6.6 4.9-6.8 8.3-.2 2.7 3.2 5.8 4.7 8 7.8 11.5 14.3 24.2 23.9 34.4 10.8 11.5 23.1 13.8 38.5 13.8 17 0 34.2 2.2 51.2 1.3a42 42 0 0 0 35.7-20.2c-4.7-2.4-11.3-1.3-16.3-1.2-7 0-13.6 0-20.5-1.3a88 88 0 0 1-26.7-9.4c-2-1.2-3.6-3.2-5.6-4.4-7.3-4.5-15.8 9.9-23.6 9.6-4.8-.2-3-4.9-1-7.5 3.5-4.8 9.8-7.7 14.6-11.2-4.5-4-9.4.2-13.7 2.3-5.2 2.7-10.7 6-16.6 7 .5-7.6 10.8-11.7 16.5-14.8 2.5-1.4 5.7-2.6 6.3-5.6.5-2.3-.3-5.5-.6-7.8-.3-3-.5-3.9-3.6-4.7-3.8-1-7.5-.7-11.3-2a101 101 0 0 1-27.2-14.6m-335-119.4-7.7 1.9-15.2 3.1c-2.5.5-5.4.2-6.1 2.6-.4 1.3.6 3.5.7 4.8q.4 3.5.4 7c.2 21.7-4.3 43.2-2.3 64.9 1.7 18.3 5.6 41.5 19 55 5.9 6 13 12.4 20.3 16.4 5.8 3.1 13.8-4.8 15-10.3.8-3.9-.6-8-1.5-11.8l-3.5-14.5a191 191 0 0 1-5.5-31.5 83 83 0 0 1 0-10.3c.2-2 1-6.5-.3-8-1.7-2.2-5.6-.8-7.9-.6q-3.7.3-7.5-.6c-5.9-1.6-7-6.3-.5-8.4 4.5-1.6 12.7.6 16.5-2.3 4.5-3.4-4.5-3.9-6.6-4-2.8 0-12 .6-11.6-4.6.4-3.8 8.3-4 11.1-4.2 6-.4 13.5 1.8 16-5.3 1.1-3-5.1-4.4-6.7-5.8-3.7-3.5-5-9.4-5.3-14.3-.3-4.8 4.4-21.4-2.8-21.8-2.2-.1-5.9 2-8 2.6m353.1 95.8q-6.1 7.7-11.8 15.8c9.2 5 18.7 9.2 28.2 13.6 4.4 2 7.4 3.5 11.6.5 3-2.2 5.3-5.2 8.2-7.5l13-9.3c-12.8-4.6-25.8-8.7-38.6-13.4-4.7-1.8-7.1-3.8-10.6.3m-105.3-16c2.8 2.8-2.5 10.5-3.5 13q12.6-1 25.2-3.6c2.8-.6 1.8 2.8.7 4-1.3 1.4-4 1.8-5.7 2.3-6.4 1.9-13 2.7-19.7 3.7 3 3.8 10.3 9.6 8 15.2-4.2-3.6-7.3-8.5-12-11.7-1.3 2-4.1 9.2-7.2 8.7-4.8-.6 0-9 1-11-3.2 0-15.4 2.9-17.1-1.1s10-4 12.2-5l-.4-.4-.4-.5c-1.6-2-3.2-4-3.4-6.6 3.6 1.2 6 7 10 7 3.9.1 5.6-5.6 7-8.3.7-1.6 3.3-7.7 5.3-5.7M749 529.5c8.2 7 2.6 20.8-3.6 27-6.9 7-22.3 13.5-31.1 6.4-4.8-4-3-9.9-1.9-15 1.3-5.9 2.1-10.7 7-14.7 7.4-6.1 21.3-10.7 29.6-3.7m-16.6 4a26 26 0 0 0-18 18c-2.4 10.7 8.7 11.5 16.1 9.9 9.3-2 19.1-8.9 19.6-19.5.4-9.2-11.5-9.7-17.7-8.4M152 487c-12 4.4-23.2 10.5-35.7 13.2-3.8.8-5.4 1.6-6.3 5.2-1.4 5-2.6 10-1.7 15.3 2 10.8 17 9.4 25.4 9 4.3-.2 12.5.6 16.3-2.1 2.7-2 1.5-5.6 1.1-8.5-1.6-10.6.2-21.4.9-32.1m651.1-103c-4.4.8-12 4.4-5.7 8.9 4.2 3 10.5 3.3 15.4 4 9.7 1.5 20 2.8 28.3 8.2 15.6 10 13.7 29.1 9 44.7 3.4 2 13.2-11 15-13l22.6-25.4c3.3-3.6-23.3-16-25.7-17.2a103 103 0 0 0-58.9-10.2m-54.7-31.6c-1.3 3 .9 4.4 2.8 6.5a147 147 0 0 1 24.5 42.9q4.3 10.8 7 22.2c1.8 7.4 7.6 9.4 14.6 11.5 16 5 32.9 6.6 49 11.4 4.3 1.3 5.2-8.2 5.4-10.6.8-6.8 0-14-3.5-20-6.8-11.4-20.4-13.8-32.6-15.8-7-1-16-2.2-21.6-7q-4.1-3.6-1-8c4-5.4 10.9-6.1 17-6.6 3-.2 21.7 1.7 22.3-.5-9.3-3-18.8-5-28-8.5q-10.6-4-21.4-7.7l-7.2-2.6c-7.4-2.5-14-5.6-21-8.7-2.7-1.2-5.1-1.6-6.3 1.5m157.2 49.4c-2.3 3.1-4.6 5.7-6.4 9.2-2 4.1-5.4 6.7-8.2 10.3q21.7 3.6 42.7 10.5c7.2 2.5 14.7 3.7 22 5.4 6.3 1.5 12.9 3.7 19.3 2.4-7.3-10-26.8-7.3-32-19.5-3.5-8.3 5.1-15 12.2-16.4 12.2-2.5 25.3-2.7 37.8-3.6.1-4.8-45.1-7.3-49.6-7.6-8-.7-16.3-2.2-24.2-2.5-7.3-.2-9.8 6.6-13.6 11.8m-172.8-34.9-13 12.8c-2.8 2.7-6.7 5.7-9 9-2.8 4.2 2.2 6.2 5.6 8.2q12.9 7.4 25.9 14.6c7.8 4.3 15.8 9.8 24.4 12.3 4.6 1.3 8.9 3.4 13.3 5.2-2.1-19.1-13.1-36.5-23.3-52.5l-7-10.9c-1.2-1.8-3.4-6.2-5.8-6.6-3.6-.5-8.9 5.8-11 8M955 415.5c5.3 3 10.6 4.6 16.6 2.3l4.4-2c-4-5.4-15.8-2-21-.3M515.1 349c-9.4 4.3-19.5 8.5-27.7 14.9-3 2.4-9.7 7.3-8.2 11.8 1.4 3.9 8.9 7.2 12.4 8.3 18.7 6.2 40 1.7 57.1 13 4.7 3.1 6.2 7.2 9.7 11.2 3.1 3.6 7 3.2 11.3 1.7 5.5-2 10.6-5 16.1-7 2.8-1 7.6-1.7 8-5.5 1.3-18-2.5-41-18.4-52-17.8-12.3-42.4-4.4-60.3 3.6m-10 42c-.5 2.3 17.1 6.4 19 7 10.7 2.9 20.7 9.9 31.7 11 2-4.3-13.4-11.1-15.8-12-11-4-23.4-4.7-35-6m347-8a142 142 0 0 1 37.6 21.6c3.9 3.2 13.3-12.1 15.4-14.5-17.8-.7-35.4-4.1-53-7.1M601.6 275.4c-12.4 8.2-23.2 19-36.9 25.2 4.3.7 9-2 13-3s8-1.6 11.9-3c2.4-.8 12.2-6 14-2.5 2.9 5.6-17.4 9.5-20.2 10.5a1041 1041 0 0 0-29 10.1c-9.3 3.4-18.7 7-28.3 9.5-9.8 2.5-20.1 3.1-29.5 7-8.3 3.4-15.5 9-23.5 13s-17.2 6.5-24.1 12.4q11.4 12.1 26.2 20c1.6-12.3 16-19.3 25.8-24 21.4-10.3 53.6-25.8 75.5-8.4 16 12.7 18.1 36.9 18.1 55.8 4.3-1.4 8.3-3.6 12.3-5.6 2.8-1.5 2.8-5.5 3.2-8.1a72 72 0 0 1 3-12.8c3-9.3 6.8-18.3 10.4-27.3 5.8-14.7 13-29.1 16.5-44.5 2.3-10 5-27.3-7-32.3-10.5-4.3-22.9 2.4-31.4 8m-54.2-40.9c-2 1.4-1.3 5.4-1.1 7.5.5 7.4.1 14.9.4 22.3.3 9 .4 25.7 9.7 30.8 6.4 3.4 14.4-1.8 19.5-5.3 8.6-6 16.5-13 25.3-18.8 10.3-7 30-16.6 40-3.5 5.3 7 4.6 17.6 3.2 25.8a148 148 0 0 1-10 31.3c-8.5 21-17.3 42.2-22 64.4 10.7-6.4 19-15.6 28.5-23.7 7-6 17.3-12.9 18.9-22.7.3-2.2 2.5-3.7 4-5.2q2.6-2.8 4.4-6.3a66 66 0 0 0 5.5-17.2c2.3-12.5 1.2-24.9-.9-37.2-1-5.6.5-11.6-.9-17-.9-3.8-3.5-3.6-7-4.5q-19.3-4.4-38.5-9.2c-5.2-1.2-10.9-3.5-16.3-3.5-4.4.1-8.1 2.7-12 4.7-6.2 3.1-16.2 8.6-23.4 5.5-8.4-3.7 1.4-11.9-2.8-15.8-3-2.6-11.6-1-15.5-1.7-2.1-.4-7-2-9-.7M679.6 342c-6.1 1-9.6 3.6-13 8.8s-3.8 8 1 12q8 6.9 16.4 13c7 5 15 8.9 22 14.1 3 2.3 16.9-15.6 19.3-18q5-5.3 10.3-10c1.3-1.1 5.4-3.8 5.4-5.7 0-4.9-10.9-9.3-14.4-10.6q-11.8-4.4-24.3-4.4c-7.4-.1-15.4-.4-22.7.8m27.2-21.5-17.5 8.5c-2 1.1-15 6.5-14.3 9.8 14.6-1 29-3.4 43.5-.6a45 45 0 0 1 18.2 7.3c4 3 7.2 8.6 11.3 3.6-8.3-4.7-15.9-11-23.3-17.1q-4.8-4-9.8-7.8c-2-1.5-5.2-5.3-8-3.7m-343.9-71q-6.8 1.2-13.5 3c-18 4.1-36.2 7.9-54.2 12.3-36 8.8-73 17.4-107.4 31.5 2.9 3.2 10.5 1 14.1.3 7-1.2 13.8-3.4 20.7-5s13.6-3.5 20.4-4.8c3.2-.6 8.7-1.4 8.9 3.3.1 6.7-12.8 11.7-17.6 14.2q-7.6 4-14.9 8.5c-3.8 2.4-11 5.6-12.2 10.4q18.8-7.8 37.3-16 7.1-2.9 13.8-6.5c3-1.7 6.8-4.6 10.3-4.9 4.7-.3 5.5 4 3.5 7.5-2.5 4.3-7.6 6.8-11.4 9.8-4.9 3.9-9.1 8.5-13.5 12.9-3.6 3.6-8.3 7.2-10.2 12.1 6.5 2.2 14-4.8 18.7-8.2q11-8.2 21.7-17.2c3.6-3 8-7.8 12.8-8.7 6.1-1.1 5.6 5.9 4.1 9.7-3.3 8.6-11 15.8-11.6 25.5-.3 6 4.7 3.7 8.1 1.3 5.7-4 9.6-10.2 14.7-14.8a155 155 0 0 1 42-27.3c2.8-1.2 3.8-5.4 4.6-8l4.2-11.2c3.3-8.1 6-17 10.6-24.4 1.3-2.1 4.6-4.3 1.8-5.5-1.4-.7-4.3 0-5.8.2m131.2-13.7c-4.7.5-9.4.4-14 1-7.6.7-4.3 10-5.6 15.6-3.6 16.4-21 19.5-34.2 11.8a43 43 0 0 1-15.8-18c-2.3-4.1-4-4.8-8.7-3.8-3.3.8-6.2.6-9.5.8-4.1.3-4.5 1.2-4.6 5.2 0 3.5-.5 5.9-2.9 8.7a48 48 0 0 1-18.2 11.7c-6.3 2.7-13.5 4.7-17 11.1a34 34 0 0 0-4.2 10.8c-.5 4 .9 6.5-1.5 10.2-4.9 7.7-7 16.1-9.6 25-.8 2.8-1 4 2 4.7 4.5 1.1 10.9-.6 15.4-.7 3.3-.2 5.2-6 6.3-8.3q3.2-6.7 7.1-13.1a180 180 0 0 1 19.5-28c5.6-6.4 14-14.4 21.3-5.4 7 8.8 12.2 19.1 20.7 26.8q11.3 10.1 23 .5a81 81 0 0 0 18.1-23.5c5.2-9.2 9-19.1 14-28.5 1.6-2.9 8.9-10.8 6.7-14.2-1.5-2.3-6.2-.7-8.3-.4m39-2q-6.2 0-12.3-.4c-7.4-.2-13.6.1-17.4 7.2-3.3 6.3-6 13-9 19.4-6.6 14-13 28.2-23 40-8.9 10.6-20.3 15.9-31.8 5.8-5.2-4.4-9-10.2-12.7-15.8-3-4.5-6.3-12.5-11.2-15.1-5.5-3-11.8 3.8-15.2 7.4a153 153 0 0 0-14.9 20.4l-9.6 15.4c-1.3 2.1-6.6 9-4.8 11.5 1.7 2.6 10.3.8 12.8.6l17.8-1.3c18.5-1.6 36.7-5.6 55.2-6.7 12.2-.7 24.3-3.1 36.3-5.2 11.7-2.1 23.4-3.6 35-6.3l20.4-5c2.3-.5 13.4-2 14.1-5.1-7.6-1.4-11.6-4.3-14.4-11.8a95 95 0 0 1-4-29.6l-.2-11.3v-4.5c0-2.8 1.2-7.7-1.2-9.6-2.3-1.7-7.3-.2-10 0M685 294a83 83 0 0 1-6.9 36c5.3.8 11.6-5.9 16-8 1.7-1 13-5 9.2-8.2-7-5.8-11.5-13.8-18.3-19.8m151.6 10c1.5 3-.4 7-1.4 9.8q12 3 24.2 5.5c6.1 1.3 4 5-1.3 4.7-7.4-.4-14.3-3.5-21.7-4-7-.3-7.8 5.8-13.8 7 .2-3.4 3-5.7 4.9-8.2q-4.9-2.4-9.6-5c-1.7-1-6.1-5-4.4-7 1.7-2.2 6.3 1.8 8 2.7 2.2 1.2 6.8 4 9.5 3.2 3.8-1 3-6.4 5.6-8.7m-116.2-80.1c-3.3.2-6.8-.9-10 .5-3 1.5-6.7 4.6-9.3 6.8-2.5 2.1-3.8 4.7-6.9 6-3 1.2-6.3 1-7.4 4.9 2.8.7 8.3-.3 10.5 1.8 3.2 3-2.4 6.3-4.7 7.3-3.3 1.3-6 .9-9.5.6-1.5-.1-1.4-.6-2.7.2-4.5 2.7-1.3 12.4.1 16 7.2 17.2 31.6 11.4 45.7 9.6-4.5-4.5-11.8-9.5-12.2-16.6-.1-2 .4-5.9 3.1-6 2.2-.2 4.8 3.1 6.1 4.4 4 3.8 9.2 10.2 15 10.7 7.7.8 13.7-11.8 16.9-17.2-4-.8-8.3-.7-10.6-4.6-2.7-4.6-2.7-11.7-2.7-16.8 0-4.4 1.5-9.3-4.4-9.5-5.5-.2-11.5 1.5-17 1.9m-519.6 11.3c-1.1 2.4-6 3.4-8.2 4q-12.1 4-24.1 8.9a275 275 0 0 0-46.7 22.4c-2.8 1.7-1.4-1.6-.7-2.8 1.6-2.7 5-4.6 7.4-6.2a116 116 0 0 1 21.5-10.6c15-6 30.3-12.3 45.8-17.2 1.7-.5 6.5-1.8 5 1.5m186.8 12.2c-3 .3-6.5-.4-9.4.6-3.8 1.2-3.1 3.8-4.2 7l-5.9 16c7.3-.3 14.2-6 20.4-9.4 3.5-1.9 15.6-8 12-13.8-2.4-3.6-9.6-.8-13-.4M470 238c-4.5 0-9.4 1.3-14 1.5-6 .3-12 1.5-18.2 1.8-4 .1-8 1-11.9 1.5a38 38 0 0 0 21.3 20.5c7.7 2.6 18.4 3 23.6-4.2 3-4.2 7.9-21-.8-21.1m234.2-37.8c-4.9 3.3-8.8 8-13 12.1-10.2 10.5-20.8 21.6-25.2 36-.7 1.9 4 3.6 5.2 3.7 2.7.1 3.2-1.2 4.2-3.4 2.6-5.6 3.6-11.7 7.7-16.5 5-5.7 11-11.3 16.9-16.3 4-3.3 13.6-8 14.8-13.6 1.3-6.6-7.6-4-10.6-2m-126.5 38c-2.8.8-3 3.4-3.6 6.2-2.6 11 23.2-1 26.8-2.9-1.2-3.5-13-2.9-15.7-3-2-.1-5.4-.9-7.5-.3M730 244c-3.8.1-2-15.5 2.3-13.9 3.7 1.4.2 13.8-2.3 13.9m-537-18c-5.8 5.1-15 5.8-22.3 7.4q-16 3.8-32 8.2c-6.7 1.7-3-2.4.4-4 5.8-2.6 12.4-4 18.5-5.5 6.7-1.6 13.6-2.7 20.2-4.4 4.6-1.2 10.6-4.3 15.2-1.6m182-108.6q10 1.7 18.7 6.7c4.7 2.8 4.5 7.2-1.5 4.7-27.9-11.9-62.5-4.7-89.7 5.8-3 1.2-2.8-1.4-1.9-3.3 1.3-2.7 4-4.3 6.5-5.5a99 99 0 0 1 25-7.4c14-2.6 28.9-3.5 42.9-1m4-17c3.6 1 7.7 3.3 9.9 6.3 2.5 3.6.5 5.4-3 3.3-4-2.3-7.6-4.6-12-5.9-2.5-.6-2.4-2-.6-3.4 1.6-1.2 4-.8 5.8-.3"/></g></svg>